<svg width="872" height="581" viewBox="0 0 872 581" fill="none" xmlns="http://www.w3.org/2000/svg">
<path d="M227.388 327.592C225.109 331.656 220.118 332.215 212.122 331.443C206.109 330.86 200.625 330.41 194.611 327.133C190.402 324.841 187.07 321.74 184.638 318.729C182.003 315.466 178.324 311.742 180.127 308.042C182.606 302.96 196.935 298.68 210.851 305.68C226.137 313.371 229.617 323.619 227.388 327.592Z" fill="#F9FAFB"/>
<path d="M684.298 300.781C674.98 307.726 660.194 303.673 660.194 303.673C660.194 303.673 660.523 288.362 669.846 281.423C679.164 274.478 693.943 278.525 693.943 278.525C693.943 278.525 693.615 293.836 684.298 300.781Z" fill="#F9FAFB"/>
<path d="M209.397 168.842C218.254 179.087 236.102 178.19 236.102 178.19C236.102 178.19 239.579 160.682 230.713 150.442C221.856 140.197 204.017 141.089 204.017 141.089C204.017 141.089 200.541 158.597 209.397 168.842Z" fill="#F9FAFB"/>
<path d="M426.203 494.601C421.982 494.601 418.56 491.182 418.56 486.963C418.56 482.745 421.982 479.325 426.203 479.325C430.424 479.325 433.845 482.745 433.845 486.963C433.845 491.182 430.424 494.601 426.203 494.601Z" fill="#E5E7EB"/>
<path d="M492.846 432.208C488.206 432.208 484.444 428.449 484.444 423.811C484.444 419.174 488.206 415.415 492.846 415.415C497.485 415.415 501.247 419.174 501.247 423.811C501.247 428.449 497.485 432.208 492.846 432.208Z" fill="#E5E7EB"/>
<path d="M657.875 174.921C654.13 174.921 651.093 171.886 651.093 168.142C651.093 164.399 654.13 161.364 657.875 161.364C661.621 161.364 664.658 164.399 664.658 168.142C664.658 171.886 661.621 174.921 657.875 174.921Z" fill="#E5E7EB"/>
<path d="M185.994 203.701C187.192 208.173 184.537 212.77 180.063 213.968C175.588 215.166 170.989 212.512 169.79 208.04C168.591 203.568 171.246 198.972 175.721 197.773C180.195 196.575 184.795 199.229 185.994 203.701Z" fill="#E5E7EB"/>
<path d="M311.514 131.726C305.351 131.726 300.355 126.733 300.355 120.574C300.355 114.415 305.351 109.422 311.514 109.422C317.677 109.422 322.673 114.415 322.673 120.574C322.673 126.733 317.677 131.726 311.514 131.726Z" fill="#E5E7EB"/>
<path d="M721.294 396.718C716.554 396.718 712.711 393.646 712.711 389.856C712.711 386.066 716.554 382.993 721.294 382.993C726.035 382.993 729.877 386.066 729.877 389.856C729.877 393.646 726.035 396.718 721.294 396.718Z" fill="#E5E7EB"/>
<path d="M226.187 456.787C226.187 463.592 220.667 469.109 213.858 469.109C207.049 469.109 201.529 463.592 201.529 456.787C201.529 449.982 207.049 444.465 213.858 444.465C220.667 444.465 226.187 449.982 226.187 456.787Z" fill="#E5E7EB"/>
<path d="M639.004 379.57H639.228C640.558 398.399 654.569 398.69 654.569 398.69C654.569 398.69 639.119 398.991 639.119 420.748C639.119 398.991 623.669 398.69 623.669 398.69C623.669 398.69 637.674 398.399 639.004 379.57Z" fill="#E5E7EB"/>
<path d="M414.31 335.614H559.894M299.922 460.325H591.089C614.061 460.325 632.685 441.713 632.685 418.754V127.753C632.685 104.794 614.061 86.1817 591.089 86.1817H383.112C360.14 86.1817 341.517 104.794 341.517 127.753V418.754C341.517 441.713 322.894 460.325 299.922 460.325C276.948 460.325 258.326 441.713 258.326 418.754V190.111C258.326 167.151 276.948 148.539 299.922 148.539H341.517L299.922 460.325ZM414.31 169.326H559.894H414.31ZM414.31 252.469H559.894H414.31Z" stroke="#E5E7EB" stroke-width="4" stroke-linecap="round" stroke-linejoin="round"/>
<path fill-rule="evenodd" clip-rule="evenodd" d="M263.221 301.677C263.221 349.899 302.331 388.986 350.58 388.986C398.828 388.986 437.938 349.899 437.938 301.677C437.938 253.457 398.828 214.369 350.58 214.369C302.331 214.369 263.221 253.457 263.221 301.677Z" fill="#F9FAFB" stroke="#0E9F6E" stroke-width="20.082" stroke-linecap="round" stroke-linejoin="round"/>
<path d="M244.16 408.035L281.486 370.73" stroke="#0E9F6E" stroke-width="20.082" stroke-linecap="round" stroke-linejoin="round"/>
<path fill-rule="evenodd" clip-rule="evenodd" d="M524.169 407.386V367.133C524.17 360.479 525.916 353.942 529.235 348.174C532.553 342.406 537.327 337.608 543.081 334.26L581.14 312.122C586.953 308.742 593.559 306.962 600.284 306.962C607.009 306.962 613.615 308.742 619.428 312.122L657.487 334.26C663.242 337.606 668.019 342.403 671.339 348.172C674.658 353.94 676.406 360.478 676.407 367.133V407.386C676.406 414.039 674.659 420.576 671.341 426.344C668.023 432.113 663.249 436.91 657.496 440.259L619.436 462.397C613.623 465.776 607.017 467.557 600.292 467.557C593.567 467.557 586.962 465.776 581.148 462.397L543.088 440.259C537.333 436.912 532.557 432.115 529.237 426.347C525.917 420.578 524.17 414.04 524.169 407.386Z" fill="#0E9F6E"/>
<path d="M600.288 387.26V349.222V387.26ZM600.279 416.844C600.002 416.844 599.727 416.898 599.471 417.005C599.214 417.111 598.982 417.267 598.786 417.463C598.59 417.66 598.435 417.893 598.33 418.149C598.225 418.406 598.172 418.681 598.174 418.958C598.174 419.377 598.298 419.786 598.531 420.134C598.764 420.481 599.095 420.752 599.482 420.912C599.869 421.072 600.294 421.113 600.705 421.031C601.115 420.948 601.492 420.746 601.788 420.449C602.083 420.153 602.284 419.775 602.364 419.365C602.445 418.954 602.402 418.529 602.24 418.142C602.078 417.756 601.806 417.427 601.457 417.196C601.108 416.965 600.698 416.842 600.279 416.844Z" stroke="#F9FAFB" stroke-width="13.094" stroke-linecap="round" stroke-linejoin="round"/>
</svg>
